<svg xmlns="http://www.w3.org/2000/svg" xmlns:xlink="http://www.w3.org/1999/xlink" width="1500" height="1500" viewBox="0 0 1500 1500">
  <defs>
    <clipPath id="clip-undraw_business_deal_re_up4u">
      <rect width="1500" height="1500"/>
    </clipPath>
  </defs>
  <g id="undraw_business_deal_re_up4u" clip-path="url(#clip-undraw_business_deal_re_up4u)">
    <rect width="1500" height="1500" fill="#fff"/>
    <g id="undraw_business_deal_re_up4u-2" data-name="undraw_business_deal_re_up4u">
      <circle id="Ellipse_101" data-name="Ellipse 101" cx="13.323" cy="13.323" r="13.323" transform="translate(354.96 1295.239)" fill="#ff8e28"/>
      <circle id="Ellipse_102" data-name="Ellipse 102" cx="13.323" cy="13.323" r="13.323" transform="translate(1196.509 1295.239)" fill="#ff8e28"/>
      <path id="Path_194" data-name="Path 194" d="M624.92,703.7H416.2a36.679,36.679,0,0,1-36.637-36.638V524.954A36.679,36.679,0,0,1,416.2,488.316H624.92a36.679,36.679,0,0,1,36.637,36.637V667.062A36.679,36.679,0,0,1,624.92,703.7Z" transform="translate(-12.388 419.455)" fill="#f8eee7"/>
      <path id="Path_195" data-name="Path 195" d="M771,704.277H562.278a36.679,36.679,0,0,1-36.637-36.637V525.531a36.679,36.679,0,0,1,36.637-36.637H771a36.679,36.679,0,0,1,36.637,36.637V667.64A36.679,36.679,0,0,1,771,704.277Z" transform="translate(122.418 419.988)" fill="#f8eee7"/>
      <path id="Path_196" data-name="Path 196" d="M917.081,704.854H708.359a36.679,36.679,0,0,1-36.637-36.637V526.108a36.679,36.679,0,0,1,36.637-36.637H917.081a36.679,36.679,0,0,1,36.637,36.637V668.217A36.679,36.679,0,0,1,917.081,704.854Z" transform="translate(257.224 420.52)" fill="#f8eee7"/>
      <rect id="Rectangle_10" data-name="Rectangle 10" width="919.265" height="192.069" transform="translate(334.976 1115.383)" fill="#f8eee7"/>
      <path id="Path_197" data-name="Path 197" d="M416.9,812.912H376.935c-20.2,0-36.637-18.661-36.637-41.6V570.883H416.9Z" transform="translate(-48.621 495.649)" fill="#f8eee7"/>
      <path id="Path_198" data-name="Path 198" d="M857.77,827.831H817.8V554.716h76.606V780.89C894.407,806.773,877.972,827.831,857.77,827.831Z" transform="translate(392.03 480.73)" fill="#f8eee7"/>
      <path id="Path_199" data-name="Path 199" d="M662.135,665.256h-282V605.3q141-80.88,282,0Z" transform="translate(-11.855 490.094)" fill="#fff"/>
      <path id="Path_200" data-name="Path 200" d="M808.215,665.833h-282V605.881q141-80.88,282,0Z" transform="translate(122.951 490.628)" fill="#fff"/>
      <path id="Path_201" data-name="Path 201" d="M954.3,666.411h-282V606.459q141-80.88,282,0Z" transform="translate(257.757 491.16)" fill="#fff"/>
      <circle id="Ellipse_103" data-name="Ellipse 103" cx="65.503" cy="65.503" r="65.503" transform="translate(248.378 986.597)" fill="#f8eee7"/>
      <circle id="Ellipse_104" data-name="Ellipse 104" cx="65.503" cy="65.503" r="65.503" transform="translate(1196.509 986.597)" fill="#f8eee7"/>
      <circle id="Ellipse_83" data-name="Ellipse 83" cx="8.278" cy="8.278" r="8.278" transform="translate(240.933 96.086)" fill="#f2f2f2"/>
      <path id="Path_142" data-name="Path 142" d="M313.572,472.34h-59.9a8.476,8.476,0,0,1-6.657-3.207,8.3,8.3,0,0,1-1.625-7.054,162.884,162.884,0,0,0-1.046-76.341,8.492,8.492,0,0,1,3.295-8.924c30.8-22.151,55.053-21.508,72.091,1.914a8.511,8.511,0,0,1,1.491,3.6,266.561,266.561,0,0,1,.747,82.724,8.458,8.458,0,0,1-8.4,7.291Z" transform="translate(-29.572 221.511)" fill="#f8eee7"/>
      <path id="Path_143" data-name="Path 143" d="M282.809,392.146h-20.6a4.3,4.3,0,0,1,0-8.592h20.6a4.3,4.3,0,0,1,0,8.592Z" transform="translate(-17.378 241.725)" fill="#ff8e28"/>
      <path id="Path_144" data-name="Path 144" d="M282.809,400.146h-20.6a4.3,4.3,0,0,1,0-8.592h20.6a4.3,4.3,0,1,1,0,8.592Z" transform="translate(-17.378 248.791)" fill="#ff8e28"/>
      <path id="Path_145" data-name="Path 145" d="M282.809,408.146h-20.6a4.3,4.3,0,0,1,0-8.592h20.6a4.3,4.3,0,1,1,0,8.592Z" transform="translate(-17.378 255.857)" fill="#ff8e28"/>
      <path id="Path_146" data-name="Path 146" d="M891.572,614.34h-59.9a8.476,8.476,0,0,1-6.657-3.206,8.3,8.3,0,0,1-1.625-7.054,162.888,162.888,0,0,0-1.046-76.341,8.492,8.492,0,0,1,3.295-8.923c30.8-22.151,55.053-21.508,72.091,1.914a8.51,8.51,0,0,1,1.491,3.6,266.56,266.56,0,0,1,.747,82.724A8.457,8.457,0,0,1,891.572,614.34Z" transform="translate(346.574 225.253)" fill="#f8eee7"/>
      <path id="Path_147" data-name="Path 147" d="M860.809,534.146h-20.6a4.3,4.3,0,0,1,0-8.592h20.6a4.3,4.3,0,1,1,0,8.592Z" transform="translate(358.768 245.467)" fill="#ff8e28"/>
      <path id="Path_148" data-name="Path 148" d="M860.809,542.146h-20.6a4.3,4.3,0,0,1,0-8.592h20.6a4.3,4.3,0,1,1,0,8.592Z" transform="translate(358.768 252.533)" fill="#ff8e28"/>
      <path id="Path_149" data-name="Path 149" d="M860.809,550.146h-20.6a4.3,4.3,0,0,1,0-8.592h20.6a4.3,4.3,0,1,1,0,8.592Z" transform="translate(358.768 259.599)" fill="#ff8e28"/>
      <circle id="Ellipse_94" data-name="Ellipse 94" cx="35.782" cy="35.782" r="35.782" transform="translate(697.662 540.014)" fill="#e8cfbe"/>
      <path id="Path_153" data-name="Path 153" d="M616.635,349.736a2.894,2.894,0,0,0-4,0,118.521,118.521,0,0,0-20.305,20.74l-4.34-8.4c-1.67-3.231-6.547-.377-4.879,2.852l6.348,12.283a2.858,2.858,0,0,0,4.879,0,114.406,114.406,0,0,1,22.292-23.482,2.842,2.842,0,0,0,0-4Z" transform="translate(135.178 211.148)" fill="#fff"/>
      <path id="Path_154" data-name="Path 154" d="M531.292,466.594l-53.959-84.739,62.483-33.463,16.4,64.652,115.549,62.44a24.984,24.984,0,1,1-14.219,33.99Z" transform="translate(42.045 210.668)" fill="#c95636"/>
      <path id="Path_155" data-name="Path 155" d="M457.811,322.847c-16.954,24.893,43.3,115.375,43.3,115.375,2.935-6.327,30.993,64.721,35.693,60.524,13.356-11.928,34.264-45.154,45.886-46.635,6.646-.847-15.414-47.983-15.414-47.983s-10.082-27.834-23.763-63.389a63.849,63.849,0,0,0-46.378-40.557S474.765,297.955,457.811,322.847Z" transform="translate(22.144 168.039)" fill="#b5c3d3"/>
      <path id="Path_156" data-name="Path 156" d="M236.178,646.851l25.626,0,12.19-98.844-37.822,0Z" transform="translate(244.606 655.042)" fill="#c95636"/>
      <path id="Path_157" data-name="Path 157" d="M453.368,743.756h7.213L488.742,732.3l15.093,11.451h0A32.163,32.163,0,0,1,536,775.914v1.047l-82.63,0Z" transform="translate(20.877 549.769)" fill="#2f2e41"/>
      <path id="Path_158" data-name="Path 158" d="M299.393,646.851l25.626,0,12.192-98.844-37.822,0Z" transform="translate(300.444 655.042)" fill="#c95636"/>
      <path id="Path_159" data-name="Path 159" d="M516.585,743.756H523.8L551.959,732.3l15.093,11.451h0a32.163,32.163,0,0,1,32.162,32.16v1.047l-82.629,0Z" transform="translate(76.715 549.769)" fill="#2f2e41"/>
      <path id="Path_160" data-name="Path 160" d="M617.161,455.889l-166.684,4.167c-31.657,17.194-32.138,54.409-21.765,98.594,0,0-3.5,26.262,3.5,33.265s10.5,7,7,19.259,15,32.273,12.752,34.52-7.5,14.5-7.5,14.5l17.508,99.8s12.256,173.329,15.757,176.831,7,0,3.5,8.754-7,5.252-3.5,8.754a128.943,128.943,0,0,1,8.754,10.5h42.329s3.191-17.508,3.191-19.259,3.5-12.256,3.5-14.006-3.095-4.846-3.095-4.846a57.607,57.607,0,0,1-2.158-10.911c0-3.5-10.5-138.313-10.5-138.313l21.009-175.08L591.537,774s0,150.569,3.5,154.071,3.5,1.751,1.751,8.754-8.754,5.253-3.5,10.5,7-3.5,5.253,5.253l-1.751,8.754,52.524.751s7-14.758,3.5-20.01-3.292-3.819.981-12.414,6.023-10.346,4.272-12.1-1.751-11.063-1.751-11.063l-8.754-167.519s-1.751-176.831-1.751-182.083a17.464,17.464,0,0,1,1.454-7.877v-7.129l-6.707-25.263Z" transform="translate(-6.232 305.617)" fill="#e89e41"/>
      <circle id="Ellipse_95" data-name="Ellipse 95" cx="51.79" cy="51.79" r="51.79" transform="translate(459.01 311.334)" fill="#c95636"/>
      <path id="Path_161" data-name="Path 161" d="M548.428,301.833c11.157,6.633,17.832,18.821,21.663,31.222a295.881,295.881,0,0,1,12.715,70.692l4.047,71.831,50.119,152.948c-43.436,36.754-206.708,8.353-206.708,8.353s-5.012-1.67,0-6.682,9.891-.572,4.879-5.584-1.557.572.114-4.44,0-1.67-1.671-3.341,12.933-16.706,12.933-16.706l-13.365-87.794L416.449,335.245c20.048-25.059,60.366-39.832,60.366-39.832l10.418-18.752,52.089,4.167Z" transform="translate(-11.733 147.309)" fill="#b8c7d7"/>
      <path id="Path_162" data-name="Path 162" d="M543.211,248.927a24,24,0,0,1,8.527,11.977,168.535,168.535,0,0,0,.111-23.5c-.61-5.5-4.482-6.737-8.966-8.17-4.049-1.3-8.628-2.758-9.86-8.1-16.28-15.837-44.619-15.039-64.014-9.514-10.672,3.04-16.813,6.946-17.362,9.234l-.114.471-.433.217c-8.226,4.113-9.828,17.1-9.722,27.273.2,19.164,6.817,40.929,10.545,42.7.2.094.247.057.333-.014h0c5.613-4.486,12.461.341,15.47,2.965a53.864,53.864,0,0,1,48.23-45.687,84.523,84.523,0,0,0,11.624-1.949,24.473,24.473,0,0,1,5.938-.779,16.9,16.9,0,0,1,9.694,2.879Z" transform="translate(10.281 86.681)"/>
      <path id="Path_163" data-name="Path 163" d="M684.913,571.211l99.624-101.167,26.248-80.912-42.238-17.085c-20.924,21.106-42.463,85.717-42.463,85.717l-68,91.261c-.543.2-1.084.415-1.618.667a20.126,20.126,0,1,0,28.444,21.518Z" transform="translate(190.083 231.562)" fill="#cf5521"/>
      <path id="Path_164" data-name="Path 164" d="M704.453,422.441l53.416,15.452.2-.038c19.634-3.812,35.166-36.442,44.737-63.144a36.9,36.9,0,0,0-19.991-46.249h0a36.987,36.987,0,0,0-38.6,5.886l-26.632,22.933Z" transform="translate(242.655 190.425)" fill="#6c63ff"/>
      <path id="Path_165" data-name="Path 165" d="M479.4,650.864l-28.728,0-13.665-110.8,42.4,0Z" transform="translate(422.003 648.023)" fill="#cf5521"/>
      <path id="Path_166" data-name="Path 166" d="M727.521,742.273h-8.086l-31.568-12.838-16.92,12.836h0a36.055,36.055,0,0,0-36.053,36.051v1.173l92.627,0Z" transform="translate(181.213 547.234)"/>
      <path id="Path_167" data-name="Path 167" d="M547.087,650.864l-28.727,0-13.665-110.8,42.4,0Z" transform="translate(481.786 648.023)" fill="#cf5521"/>
      <path id="Path_168" data-name="Path 168" d="M795.2,742.273h-8.086L755.55,729.435l-16.92,12.836h0a36.055,36.055,0,0,0-36.053,36.051v1.173l92.627,0Z" transform="translate(240.997 547.234)"/>
      <path id="Path_169" data-name="Path 169" d="M882.828,493.313s3.354,40.252-5.031,78.828-8.386,147.216-8.386,147.216l-18.449,211.7-55.347-5.032L780.519,572.141l-53.67,119.08,5.032,16.772-6.7,4.193s5.025,32.705,1.671,32.705-11.74,5.032-11.74,5.032l6.709,172.75L664.793,921,644.667,677.8l21.8-139.207,1.677-26.835,7.547.31,3.843-11.212,7.059-19.288Z" transform="translate(189.847 328.303)" fill="#3c7745"/>
      <path id="Path_170" data-name="Path 170" d="M871.568,673.251l.3-.419c15.964-22.351-8.046-76.058-11.667-83.844l15.253-4.95-3.435-29.2-1.627-13.016,11.658-11.657.033-.291,6.709-58.7,9.754-38.989a85.6,85.6,0,0,0-24.3-82.954L851.7,327.974l-27.4-40.545H780.111L764.96,316.047A64.406,64.406,0,0,0,715.127,381.8l3.434,75.058-13.443,93.454-.008,16.913-15.128,16.813,3.3,16.517-11.513,4.934-5.084,23.723c-2.1,2.776-15.991,21.292-15.991,26.354,0,.76.561,1.495,1.765,2.31,9.464,6.408,61.771,19.473,84.922,10.209,24.66-9.86,122.687,4.932,123.675,5.082Z" transform="translate(204.007 156.82)" fill="#ff8e28"/>
      <circle id="Ellipse_96" data-name="Ellipse 96" cx="58.522" cy="58.522" r="58.522" transform="translate(941.982 314.116)" fill="#cf5521"/>
      <path id="Path_171" data-name="Path 171" d="M764.568,344.175a159.159,159.159,0,0,0,27.017-2.59c8.827-2.033,28.3-17.092,33.608-25.988h0c3.943-6.61,6.31-16.833,7.6-24.246a71.149,71.149,0,0,0-13.9-56.143,22.478,22.478,0,0,0-9.276-7.512c-.328-.119-.666-.223-1.006-.31a27.734,27.734,0,0,1-14.012-8.178,22.87,22.87,0,0,0-2.354-2.3,34.163,34.163,0,0,0-14.433-6.786c-8.528-2.048-20.728.518-36.259,7.635-7.8,3.575-16.463,2.578-23.138,1.309a2.173,2.173,0,0,0-2.027.753,15.338,15.338,0,0,1-10.314,4.423c-2.37.165-4.774,3.515-7.672,7.877-.658.99-1.425,2.146-1.982,2.851l-.111-1.324-1.3,1.514a18.612,18.612,0,0,0,9.183,30.1,36.3,36.3,0,0,0,7.328.975c1.5.1,3.046.195,4.533.414a28.061,28.061,0,0,1,21.315,17.665,7.338,7.338,0,0,0,11.165,3.276,12.125,12.125,0,0,1,10.993-2.3,8.05,8.05,0,0,1,3.661,3.942,10.488,10.488,0,0,0,4.1,4.539c6.093,2.945,6.862,16.668,5,28.172-1.8,11.089-5.706,19.179-9.505,19.672-2.925.379-3.255.6-3.454,1.12l-.178.469.341.426a11.984,11.984,0,0,0,5.082.546Z" transform="translate(230.33 87.932)"/>
      <path id="Path_172" data-name="Path 172" d="M814.495,397.1l-28.13-35.842c-28.654,7.89-79.5,53.208-79.5,53.208L602.457,459.772a20.116,20.116,0,1,0,12.221,32.594l136.777-38.158Z" transform="translate(131.85 222.028)" fill="#cf5521"/>
      <path id="Path_173" data-name="Path 173" d="M722.4,442.727l44.385-49.479,2.464-35.059A36.99,36.99,0,0,0,750.9,323.728h0a36.9,36.9,0,0,0-49.026,11.622c-15.683,23.636-32.555,55.594-23.874,73.611l.088.183Z" transform="translate(217.198 184.592)" fill="#ff8e28"/>
      <path id="Path_174" data-name="Path 174" d="M541.323,596.892,425.964,537.811c-8.205-4.2-10.924-15.349-6.059-24.848L495.122,366.1c4.865-9.5,15.5-13.807,23.7-9.6l115.359,59.081c8.206,4.2,10.924,15.349,6.059,24.848L565.027,587.287C560.162,596.786,549.529,601.094,541.323,596.892Z" transform="translate(-10.813 216.401)" fill="#e8cfbe"/>
      <path id="Path_175" data-name="Path 175" d="M513.26,560.857l-78.376-40.14c-7.685-3.936-10.231-14.375-5.675-23.271L491.7,375.433c4.556-8.9,14.515-12.931,22.2-8.995l94.663,48.481c7.685,3.936,10.23,14.375,5.674,23.271l-33.947,66.284C559.994,544.1,547.492,578.389,513.26,560.857Z" transform="translate(-2.46 225.275)" fill="#fff"/>
      <path id="Path_176" data-name="Path 176" d="M526.769,453.955,457.348,418.4a4.342,4.342,0,0,1,3.916-7.647l69.42,35.553a4.342,4.342,0,0,1-3.916,7.647Z" transform="translate(22.782 265.546)" fill="#f8eee7"/>
      <path id="Path_177" data-name="Path 177" d="M469.082,434.537l-15.842-8.114a4.342,4.342,0,0,1,3.917-7.647L473,426.89a4.342,4.342,0,0,1-3.917,7.647Z" transform="translate(19.153 272.632)" fill="#6c63ff"/>
      <path id="Path_178" data-name="Path 178" d="M493.032,456.93l-43.9-22.484a4.342,4.342,0,0,1,3.917-7.647l43.9,22.484a4.342,4.342,0,0,1-3.917,7.647Z" transform="translate(15.524 279.718)" fill="#f8eee7"/>
      <path id="Path_179" data-name="Path 179" d="M541.355,425.473l-69.42-35.553a4.342,4.342,0,0,1,3.916-7.647l69.42,35.553a4.342,4.342,0,0,1-3.916,7.647Z" transform="translate(35.667 240.389)" fill="#f8eee7"/>
      <path id="Path_180" data-name="Path 180" d="M483.669,406.056l-15.842-8.114a4.342,4.342,0,0,1,3.917-7.647l15.842,8.114a4.342,4.342,0,0,1-3.917,7.647Z" transform="translate(32.038 247.475)" fill="#f8eee7"/>
      <path id="Path_181" data-name="Path 181" d="M507.619,428.448l-43.9-22.484a4.342,4.342,0,0,1,3.917-7.647l43.9,22.484a4.342,4.342,0,0,1-3.917,7.647Z" transform="translate(28.409 254.561)" fill="#f8eee7"/>
      <path id="Path_182" data-name="Path 182" d="M444.708,467.182,418.647,370.16l69.642-13.183-3.745,66.595,91.5,94.22a24.984,24.984,0,1,1-23.758,28.161Z" transform="translate(-9.792 218.25)" fill="#c95636"/>
      <path id="Path_183" data-name="Path 183" d="M419.09,311.805c-23.639,18.662,6.7,123.049,6.7,123.049,4.7-5.155,10.156,71.037,15.9,68.442,16.319-7.373,46.229-32.8,57.76-30.727,6.594,1.185-.314-50.4-.314-50.4s-1.271-29.576-3.659-67.6a63.849,63.849,0,0,0-32.079-52.6S442.729,293.143,419.09,311.805Z" transform="translate(-17.36 167.824)" fill="#b5c3d3"/>
      <path id="Path_184" data-name="Path 184" d="M655.9,591.792l-62.951-29.726a9.851,9.851,0,0,1-5.4-6.674,9.649,9.649,0,0,1,1.793-8.22A189.415,189.415,0,0,0,625.9,467.6a9.787,9.787,0,0,1,9.591-7.892c32.106.109,56.1,11.832,71.316,34.839a9.908,9.908,0,0,1,1.3,8.241A309.851,309.851,0,0,1,668.352,588.3a9.83,9.83,0,0,1-12.447,3.494Z" transform="translate(139.159 308.987)" fill="#e8cfbe"/>
      <path id="Path_185" data-name="Path 185" d="M657.47,522.823l-48.133-22.729a4.993,4.993,0,1,1,4.264-9.03l48.133,22.729a4.993,4.993,0,0,1-4.264,9.03Z" transform="translate(156.112 336.263)" fill="#ff8e28"/>
      <path id="Path_186" data-name="Path 186" d="M661.44,514.415l-48.133-22.729a4.993,4.993,0,0,1,4.264-9.03L665.7,505.385a4.993,4.993,0,1,1-4.264,9.03Z" transform="translate(159.619 328.837)" fill="#ff8e28"/>
      <ellipse id="Ellipse_97" data-name="Ellipse 97" cx="16.68" cy="19.199" rx="16.68" ry="19.199" transform="translate(229.333 579.883) rotate(-56.364)" fill="#ff8e28"/>
      <ellipse id="Ellipse_98" data-name="Ellipse 98" cx="16.68" cy="19.199" rx="16.68" ry="19.199" transform="translate(1181.49 735.175) rotate(-56.364)" fill="#ff8e28"/>
      <ellipse id="Ellipse_105" data-name="Ellipse 105" cx="5" cy="7.5" rx="5" ry="7.5" transform="translate(526 353)"/>
      <ellipse id="Ellipse_106" data-name="Ellipse 106" cx="4.333" cy="6.5" rx="4.333" ry="6.5" transform="translate(551 353)"/>
      <ellipse id="Ellipse_107" data-name="Ellipse 107" cx="4.333" cy="6.5" rx="4.333" ry="6.5" transform="translate(942.774 368)"/>
      <g id="Group_24" data-name="Group 24" transform="translate(286 -94.399)">
        <path id="Path_54" data-name="Path 54" d="M699.9,441.091H532.68a14.918,14.918,0,0,1-14.9-14.9V282.151a14.918,14.918,0,0,1,14.9-14.9H699.9a14.918,14.918,0,0,1,14.9,14.9V426.19A14.918,14.918,0,0,1,699.9,441.091ZM532.68,270.561a11.6,11.6,0,0,0-11.589,11.589V426.19A11.6,11.6,0,0,0,532.68,437.78H699.9a11.6,11.6,0,0,0,11.589-11.589V282.151A11.6,11.6,0,0,0,699.9,270.561Z" transform="translate(-155.647 -16.208)" fill="#e8cfbe"/>
        <path id="Path_55" data-name="Path 55" d="M665.441,409.889H547.119a14.089,14.089,0,0,1-14.073-14.073V294.823a14.089,14.089,0,0,1,14.073-14.073H665.441a14.089,14.089,0,0,1,14.073,14.073V395.816a14.089,14.089,0,0,1-14.073,14.073Z" transform="translate(-145.637 -7.357)" fill="#f8eee7"/>
        <circle id="Ellipse_83-2" data-name="Ellipse 83" cx="8.278" cy="8.278" r="8.278" transform="translate(453.193 212.962)" fill="#e8cfbe"/>
        <path id="Path_56" data-name="Path 56" d="M456.161,88.087l-17.4-29.078-17.3,29.073-2.846-1.692,20.139-33.841L459,86.385Z" transform="translate(22.714 165.461)" fill="#e8cfbe"/>
        <path id="Path_57" data-name="Path 57" d="M602.064,315.7a34.808,34.808,0,0,0-.821-7.45H576.4a6.623,6.623,0,0,0-6.623,6.623v35.471A34.745,34.745,0,0,0,602.064,315.7Z" transform="translate(-121.554 10.673)" fill="#ff8e28"/>
        <path id="Path_58" data-name="Path 58" d="M582.709,363.6a36.424,36.424,0,1,1,35.565-44.227l.439,2.009h-26.9a4.973,4.973,0,0,0-4.967,4.967v37.013l-1.826.129C584.256,363.546,583.489,363.6,582.709,363.6Zm0-69.536a33.113,33.113,0,0,0,0,66.225c.278,0,.553-.008.828-.021V326.348a8.288,8.288,0,0,1,8.278-8.278h22.718a33.3,33.3,0,0,0-31.824-24.007Z" transform="translate(-136.967 -0.802)" fill="#ff8e28"/>
        <path id="Path_59" data-name="Path 59" d="M616.793,363.541H577.058a8.288,8.288,0,0,1-8.278-8.278v-5.807l1.539-.109a33.021,33.021,0,0,0,29.964-40.088l-.439-2.01h16.95a8.288,8.288,0,0,1,8.278,8.278v39.735a8.288,8.288,0,0,1-8.278,8.278Zm-44.7-11.033v2.755a4.972,4.972,0,0,0,4.967,4.967h39.735a4.972,4.972,0,0,0,4.967-4.967V315.528a4.972,4.972,0,0,0-4.967-4.967H603.9a36.1,36.1,0,0,1,.476,5.795,36.524,36.524,0,0,1-32.285,36.152Z" transform="translate(-122.209 10.017)" fill="#ff8e28"/>
      </g>
      <path id="Path_88" data-name="Path 88" d="M1138.685,757.459a3.554,3.554,0,0,1-.8,2.295,2.535,2.535,0,0,1-1.94.946h-737.3a3.287,3.287,0,0,1,0-6.481h737.3a2.536,2.536,0,0,1,1.94.946,3.555,3.555,0,0,1,.8,2.295Z" transform="translate(-31.347 572.14)" fill="#918b87"/>
      <rect id="Rectangle_89" data-name="Rectangle 89" width="1500" height="1500" opacity="0"/>
    </g>
  </g>
</svg>
