<svg xmlns="http://www.w3.org/2000/svg" xmlns:xlink="http://www.w3.org/1999/xlink" width="1500" height="1500" viewBox="0 0 1500 1500">
  <defs>
    <clipPath id="clip-undraw_beer_celebration_re_0iqw">
      <rect width="1500" height="1500"/>
    </clipPath>
  </defs>
  <g id="undraw_beer_celebration_re_0iqw" clip-path="url(#clip-undraw_beer_celebration_re_0iqw)">
    <rect width="1500" height="1500" fill="#fff"/>
    <g id="undraw_beer_celebration_re_0iqw-2" data-name="undraw_beer_celebration_re_0iqw">
      <path id="Path_3098" data-name="Path 3098" d="M845.533,564.416a4.416,4.416,0,0,1-3.2-7.655l.3-1.2-.12-.289a11.86,11.86,0,0,0-21.876.081c-3.578,8.617-8.133,17.25-9.255,26.361A35.088,35.088,0,0,0,812,593.778a140.664,140.664,0,0,1-12.8-58.422,135.758,135.758,0,0,1,.842-15.146q.7-6.184,1.936-12.28A142.3,142.3,0,0,1,830.2,447.622a37.868,37.868,0,0,0,15.749-16.34,28.888,28.888,0,0,0,2.627-7.894c-.767.1-2.891-11.576-2.313-12.293-1.068-1.621-2.981-2.427-4.148-4.01-5.8-7.869-13.8-6.495-17.974,4.2-8.917,4.5-9,11.965-3.532,19.143,3.481,4.567,3.959,10.747,7.014,15.636-.314.4-.641.792-.955,1.194a143.212,143.212,0,0,0-14.948,23.681,59.537,59.537,0,0,0-3.554-27.653c-3.4-8.207-9.779-15.119-15.394-22.214-6.745-8.522-20.576-4.8-21.765,6q-.017.157-.034.314,1.251.706,2.449,1.5a5.99,5.99,0,0,1-2.415,10.9l-.122.019a59.636,59.636,0,0,0,1.571,8.912c-7.2,27.859,8.349,38.006,30.556,38.462.49.251.968.5,1.458.742a146.17,146.17,0,0,0-7.869,37.029,138.648,138.648,0,0,0,.1,22.386l-.038-.264a36.636,36.636,0,0,0-12.507-21.154c-9.624-7.906-23.222-10.818-33.6-17.173a6.875,6.875,0,0,0-10.531,6.689q.021.139.042.278a40.275,40.275,0,0,1,4.512,2.174q1.251.706,2.449,1.5a5.99,5.99,0,0,1-2.415,10.9l-.122.019-.251.038a59.652,59.652,0,0,0,10.973,17.182c4.5,24.32,23.851,26.628,44.546,19.545h.013a146.135,146.135,0,0,0,9.817,28.658h35.068c.126-.39.239-.792.352-1.182a39.849,39.849,0,0,1-9.7-.578c2.6-3.193,5.2-6.411,7.806-9.6a2.206,2.206,0,0,0,.163-.189c1.32-1.634,2.652-3.255,3.972-4.889v0a58.366,58.366,0,0,0-1.71-14.868Z" transform="translate(-84.898 464.239)" fill="#028ffa"/>
      <path id="Path_3099" data-name="Path 3099" d="M998.983,563.039H725.663a70.2,70.2,0,0,0-70.2,70.2v117h22.023V685.677a70.2,70.2,0,0,1,70.2-70.2H976.96a70.2,70.2,0,0,1,70.2,70.2v64.558h22.023v-117A70.2,70.2,0,0,0,998.983,563.039Z" transform="translate(-133.324 556.488)" fill="#d7edf8"/>
      <ellipse id="Ellipse_565" data-name="Ellipse 565" cx="71.575" cy="10.225" rx="71.575" ry="10.225" transform="translate(658.996 1128.966)" fill="#aedaf3"/>
      <path id="Path_3100" data-name="Path 3100" d="M868.633,607H773.3c-23.534-22.555-40.361-44.292-26.89-62.335a19.556,19.556,0,0,1,19.556-19.556h110a19.556,19.556,0,0,1,19.556,19.556C900.651,565.226,891.488,586.008,868.633,607Z" transform="translate(-83.953 534.753)" fill="#aad9f2"/>
      <path id="Path_3064" data-name="Path 3064" d="M780.576,968.179c-30.773-6.445-49.985-44.965-36.621-73.423,14.588-31.065,54.057-40.058,79.992-62.536,36.145-31.327,41.968-85.681,34.392-132.908s-25.81-92.736-28.081-140.514c-1.367-28.749,6.617-62.542,33.009-74.024,16-6.959,35.079-3.443,50.12,5.392s26.695,22.378,37.268,36.252a471.043,471.043,0,0,1,95.577,281.851c.083,30.486-3.087,61.89-17.277,88.872-22.238,42.286-68.816,67.391-115.886,75.579S817.755,974.6,770.4,968.289" transform="translate(310.67 335.818)" fill="#aad9f2"/>
      <path id="Path_3065" data-name="Path 3065" d="M656.577,378.35a24.7,24.7,0,0,0-2.48,2.989L537.906,378.5l-13.555-24.769L484.3,369.3l19.735,46.181a18.749,18.749,0,0,0,19.489,11.246l131.274-15.858a24.6,24.6,0,1,0,1.783-32.517Z" transform="translate(17.199 189.438)" fill="#f68389"/>
      <path id="Path_3066" data-name="Path 3066" d="M113.068,584.272h38.2l18.175-147.359-56.385,0Z" transform="translate(181.943 689.152)" fill="#f68389"/>
      <path id="Path_3067" data-name="Path 3067" d="M383.693,687.689l75.238,0h0a47.95,47.95,0,0,1,47.948,47.944v1.561l-123.186,0Z" transform="translate(-98.426 573.263)" fill="#2f2e41"/>
      <path id="Path_3068" data-name="Path 3068" d="M305.426,589.387l35.133-15.009L299.384,431.724l-51.85,22.153Z" transform="translate(336.496 683.188)" fill="#f68389"/>
      <path id="Path_3069" data-name="Path 3069" d="M543.181,707.413l69.189-29.558h0A47.95,47.95,0,0,1,675.3,703.111l.612,1.433L562.631,752.939Z" transform="translate(84.877 557.519)" fill="#2f2e41"/>
      <path id="Path_3070" data-name="Path 3070" d="M286.352,194.974l2.762,44.768-80.752,8.642-84.5,9.042,24.87-67.979Z" transform="translate(194.359 404.736)" fill="#f68389"/>
      <path id="Path_3071" data-name="Path 3071" d="M565.287,510.04c-.915-.359-92.126-35.839-148.152-6.828l-1.378.714-11.177-55.013-6.369-118.276,41.441-19.582,11.41-25.558,77.718-4.6,15.971,21.9,54.375,17.821-32.5,189.951Z" transform="translate(-81.738 105.733)" fill="#fec230"/>
      <path id="Path_3072" data-name="Path 3072" d="M477.275,381.79l9.613-75.532,21.889-6.662.369.136c.505.185,12.4,4.739,15.657,21.208,3.126,15.808,26.666,114.178,26.9,115.17l.236.984-55.309,22.129Z" transform="translate(9.129 127.224)" fill="#fec230"/>
      <path id="Path_3073" data-name="Path 3073" d="M713.723,1012.49l73.624-15.1-117.673-324.7L629.4,561.935s-25.543-88.8-37.084-123.164l-6.964-46.109L420.485,410.911s-46.047,67.625-32.058,177.849L382.1,1003.051l73.624,3.776,61.668-417.833L625.626,818.047s34.114,97.745,58.522,118.932Z" transform="translate(-100.258 234.187)" fill="#028ffa"/>
      <path id="Path_3074" data-name="Path 3074" d="M501.609,479.153a24.651,24.651,0,0,0-3.879.214l-76.914-87.135,8.947-26.78-38.651-18.785-20.446,45.87a18.749,18.749,0,0,0,5,21.937l100.883,85.481a24.6,24.6,0,1,0,25.057-20.8Z" transform="translate(-115.266 181.322)" fill="#f68389"/>
      <path id="Path_3075" data-name="Path 3075" d="M376.07,408.586l30.069-85.648c3.379-10.1,7.614-16.23,12.586-18.231a7.766,7.766,0,0,1,6.24-.058l13.483,17.034,12.514,52.569-32.085,75.47Z" transform="translate(-107.188 132.312)" fill="#fec230"/>
      <path id="Path_3076" data-name="Path 3076" d="M544.733,349.323h-132a10.253,10.253,0,0,1-10.242-10.242v-56.9a76.243,76.243,0,1,1,152.485,0h0v56.9A10.253,10.253,0,0,1,544.733,349.323Z" transform="translate(-76.824 19.584)" fill="#2f2e41"/>
      <circle id="Ellipse_559" data-name="Ellipse 559" cx="55.899" cy="55.899" r="55.899" transform="translate(361.678 255.785)" fill="#f68389"/>
      <path id="Path_3077" data-name="Path 3077" d="M552.414,276.92H471.7l-.828-11.588-4.138,11.588H454.3l-1.64-22.968-8.2,22.968H420.411v-1.138a60.379,60.379,0,0,1,60.311-60.312H492.1a60.38,60.38,0,0,1,60.311,60.312Z" transform="translate(-56.225 30.537)" fill="#2f2e41"/>
      <path id="Path_3078" data-name="Path 3078" d="M476.54,335.489a10.46,10.46,0,0,1-1.812-.16l-59.1-10.428V227.219h65.062l-1.611,1.878c-22.411,26.137-5.527,68.519,6.532,91.456a10.09,10.09,0,0,1-.8,10.713,10.2,10.2,0,0,1-8.265,4.223Z" transform="translate(-61.729 44.039)" fill="#2f2e41"/>
      <path id="Path_3079" data-name="Path 3079" d="M643.873,515.08a22.748,22.748,0,0,0,3.634-34.691l36.431-72.163-41.728,4.84-28.2,67.785a22.871,22.871,0,0,0,29.86,34.229Z" transform="translate(159.492 252.074)" fill="#f68389"/>
      <path id="Path_3080" data-name="Path 3080" d="M511.431,575.471l-32.835,0-15.619-126.64,48.459,0Z" transform="translate(584.107 702.847)" fill="#f68389"/>
      <path id="Path_3081" data-name="Path 3081" d="M821.188,733.327l-105.865,0v-1.339a41.207,41.207,0,0,1,41.2-41.205h.005l64.659,0Z" transform="translate(282.723 576.817)" fill="#2f2e41"/>
      <path id="Path_3082" data-name="Path 3082" d="M427.947,575.471l-32.833,0-15.619-126.64,48.458,0Z" transform="translate(488.16 702.847)" fill="#f68389"/>
      <path id="Path_3083" data-name="Path 3083" d="M733.968,733.327l-105.866,0v-1.339a41.207,41.207,0,0,1,41.2-41.2h.006l64.659,0Z" transform="translate(182.479 576.817)" fill="#2f2e41"/>
      <path id="Path_3084" data-name="Path 3084" d="M432.145,258.9l-32.137,74.035L373.5,758.476,440.45,755.8l18.286-202.859,56.409-180.678,32.427,201.425,13.392,176.754,55.4,2.4L638.439,258.9Z" transform="translate(481.271 484.555)" fill="#028ffa"/>
      <path id="Path_3085" data-name="Path 3085" d="M849.58,276.939l-93.143,2.33-54.684,28.073-3,207.114-34.106,143s213.1,14.666,242.554-6.758L872.386,487.331,919.08,310.784Z" transform="translate(224.479 101.184)" fill="#fec230"/>
      <path id="Path_3086" data-name="Path 3086" d="M774.845,295.813l-8.671-5.856s-35.922,10.767-46.54,58.666c0,0-8.125,24.032-11.69,40.554-4.089,18.951-94.38,193.024-94.38,193.024l54.059,15.508,99.109-160.278Z" transform="translate(165.77 116.146)" fill="#fec230"/>
      <path id="Path_3087" data-name="Path 3087" d="M787.183,531.129a22.747,22.747,0,0,1,6.073-34.348l-15.119-79.411,38.775,16.159,8.412,72.933a22.871,22.871,0,0,1-38.142,24.667Z" transform="translate(354.916 262.583)" fill="#f68389"/>
      <path id="Path_3088" data-name="Path 3088" d="M790.254,295.568l9.949-3.238s31.561,20.255,28.558,69.225c0,0,1.183,25.34.053,42.205-1.3,19.344,16.068,211.566,16.068,211.566H788.644l-24.1-174.074Z" transform="translate(339.289 118.873)" fill="#fec230"/>
      <path id="Path_3089" data-name="Path 3089" d="M830.381,271.038a64.568,64.568,0,1,1-64.568-64.568h0a64.407,64.407,0,0,1,64.568,64.246Q830.382,270.877,830.381,271.038Z" transform="translate(266.543 20.192)" fill="#f68389"/>
      <path id="Path_3090" data-name="Path 3090" d="M702.827,205.52c7.564-16.265,22.2-13.049,35-7.536,16.211-3.6,31.629-14.361,49.1-7.995,17.205,25.024,74.971,17.662,62.681,58.4-.016,9.762,18.369,4.08,15.159,20.068,9.739,30.769-35.154,89.04-60.927,76.769,6.374-11.682,20.934-38.215-1.15-40.846-47.506,44.2-4.9-84.172-64.592-46.839C718.333,275.629,691.275,223.612,702.827,205.52Z" transform="translate(265.176 -1.017)" fill="#2f2e41"/>
      <path id="Path_3091" data-name="Path 3091" d="M652.716,388.745a71.829,71.829,0,0,1-11.06.258A2.413,2.413,0,0,0,639,391.1l-7.055,52.919a21.482,21.482,0,0,1-4.552,10.484,22.849,22.849,0,0,0-5.143,17.462v89.892s-.455,11.986,8.754,11.986a133.125,133.125,0,0,0,33.2,0s7.374-1.4,7.374-12.456V472.872a21.651,21.651,0,0,0-4.552-17.6,22.029,22.029,0,0,1-4.415-10.423l-7.328-54.026A2.412,2.412,0,0,0,652.716,388.745Z" transform="translate(175.553 229.677)" fill="#fff"/>
      <path id="Path_3092" data-name="Path 3092" d="M648.38,577.2a134.39,134.39,0,0,1-16.671-1.037,8.961,8.961,0,0,1-6.636-2.719c-3.748-3.892-3.539-10.559-3.528-10.841V472.865a24.447,24.447,0,0,1,5.5-18.527,19.954,19.954,0,0,0,4.213-9.723l7.054-52.907a3.95,3.95,0,0,1,4.324-3.4,70.01,70.01,0,0,0,10.744-.259l.042,0a3.929,3.929,0,0,1,4.177,3.386l7.328,54.029a20.532,20.532,0,0,0,4.109,9.695,23.108,23.108,0,0,1,4.871,18.665v88.376c0,12.176-8.522,13.931-8.608,13.947A135.346,135.346,0,0,1,648.38,577.2Zm-6.121-185.88a.91.91,0,0,0-.944.776l-7.056,52.928a23.015,23.015,0,0,1-4.874,11.236,21.419,21.419,0,0,0-4.818,16.323l.011.187v89.892c0,.112-.164,5.733,2.688,8.686a5.983,5.983,0,0,0,4.549,1.783l.189.012a131.763,131.763,0,0,0,32.817,0c.144-.036,6.045-1.382,6.045-10.951l.025-88.783a20.1,20.1,0,0,0-4.233-16.366,23.609,23.609,0,0,1-4.743-11.171l-7.33-54.036a.9.9,0,0,0-.935-.77,73.655,73.655,0,0,1-11.267.261A1.222,1.222,0,0,0,642.259,391.323Z" transform="translate(174.744 228.866)" fill="#b0dcf4"/>
      <path id="Path_3093" data-name="Path 3093" d="M640.116,428.207H651.3a16.765,16.765,0,0,1,16.765,16.765v42.071A16.765,16.765,0,0,1,651.3,503.807H640.116a16.764,16.764,0,0,1-16.765-16.765V444.972a16.765,16.765,0,0,1,16.765-16.765Z" transform="translate(177.018 275.039)" fill="#028ffa"/>
      <path id="Path_3094" data-name="Path 3094" d="M582.8,316.838a72.011,72.011,0,0,1-11.089.259,2.419,2.419,0,0,0-2.662,2.1l-7.073,53.057a21.54,21.54,0,0,1-4.563,10.511,22.908,22.908,0,0,0-5.156,17.508V490.4s-.456,12.017,8.777,12.017a133.476,133.476,0,0,0,33.282,0s7.393-1.4,7.393-12.488V401.184a21.706,21.706,0,0,0-4.563-17.645,22.085,22.085,0,0,1-4.427-10.45l-7.347-54.167A2.419,2.419,0,0,0,582.8,316.838Z" transform="translate(95.104 147.033)" fill="#fff"/>
      <path id="Path_3095" data-name="Path 3095" d="M578.45,505.788a134.735,134.735,0,0,1-16.714-1.04,8.983,8.983,0,0,1-6.653-2.726c-3.758-3.9-3.548-10.586-3.538-10.869V401.178a24.51,24.51,0,0,1,5.51-18.576,20.006,20.006,0,0,0,4.224-9.748l7.072-53.045a3.961,3.961,0,0,1,4.335-3.41,70.2,70.2,0,0,0,10.771-.26l.042,0a3.939,3.939,0,0,1,4.188,3.394l7.348,54.17a20.588,20.588,0,0,0,4.12,9.72,23.169,23.169,0,0,1,4.883,18.714v88.606c0,12.208-8.544,13.967-8.631,13.983a135.716,135.716,0,0,1-16.956,1.065Zm-6.137-186.365a.912.912,0,0,0-.946.778l-7.075,53.066a23.075,23.075,0,0,1-4.887,11.265,21.475,21.475,0,0,0-4.831,16.365l.011.187v90.126c0,.112-.164,5.748,2.7,8.708a6,6,0,0,0,4.561,1.788l.19.012a132.107,132.107,0,0,0,32.9,0c.144-.036,6.061-1.385,6.061-10.98l.025-89.014a20.153,20.153,0,0,0-4.244-16.408,23.672,23.672,0,0,1-4.755-11.2l-7.349-54.176a.9.9,0,0,0-.938-.772,73.849,73.849,0,0,1-11.3.262,1.2,1.2,0,0,0-.125-.007Z" transform="translate(94.291 146.22)" fill="#b0dcf4"/>
      <path id="Path_3096" data-name="Path 3096" d="M570.165,356.4h11.211a16.808,16.808,0,0,1,16.808,16.808v42.181A16.808,16.808,0,0,1,581.375,432.2H570.165a16.808,16.808,0,0,1-16.808-16.808V373.212A16.808,16.808,0,0,1,570.165,356.4Z" transform="translate(96.57 192.514)" fill="#028ffa"/>
      <circle id="Ellipse_560" data-name="Ellipse 560" cx="38.688" cy="38.688" r="38.688" transform="translate(679.338 293.688)" fill="#dff1fd"/>
      <circle id="Ellipse_561" data-name="Ellipse 561" cx="38.688" cy="38.688" r="38.688" transform="translate(591.217 764.388)" fill="#dff1fd"/>
      <circle id="Ellipse_562" data-name="Ellipse 562" cx="38.688" cy="38.688" r="38.688" transform="translate(758.863 934.185)" fill="#dff1fd"/>
      <path id="Path_3097" data-name="Path 3097" d="M1668.962,714.72H277.721a2.559,2.559,0,1,1,0-5.118H1668.962a2.559,2.559,0,0,1,0,5.118Z" transform="translate(-223.162 598.451)"/>
      <g id="Group_120" data-name="Group 120" transform="translate(36.758 -290.343)">
        <path id="Subtraction_4" data-name="Subtraction 4" d="M24442.5,8461a5.5,5.5,0,0,1-5.291-7h10.584a5.506,5.506,0,0,1-5.293,7Z" transform="translate(-24046 -7843)" fill="#2f2e41"/>
        <path id="Subtraction_5" data-name="Subtraction 5" d="M24442.5,8461a5.5,5.5,0,0,1-5.291-7h10.584a5.506,5.506,0,0,1-5.293,7Z" transform="translate(-24014 -7843)" fill="#2f2e41"/>
      </g>
      <g id="Group_121" data-name="Group 121" transform="translate(582.344 -334.271)">
        <path id="Subtraction_4-2" data-name="Subtraction 4" d="M24442.5,8461a5.5,5.5,0,0,1-5.291-7h10.584a5.506,5.506,0,0,1-5.293,7Z" transform="translate(-24046 -7843)" fill="#2f2e41"/>
        <path id="Subtraction_5-2" data-name="Subtraction 5" d="M24442.5,8461a5.5,5.5,0,0,1-5.291-7h10.584a5.506,5.506,0,0,1-5.293,7Z" transform="translate(-24014 -7843)" fill="#2f2e41"/>
      </g>
      <rect id="Rectangle_899" data-name="Rectangle 899" width="1500" height="1500" fill="#fff" opacity="0"/>
    </g>
  </g>
</svg>
