<svg xmlns="http://www.w3.org/2000/svg" xmlns:xlink="http://www.w3.org/1999/xlink" width="1500" height="1500" viewBox="0 0 1500 1500">
  <defs>
    <clipPath id="clip-undraw_fans_re_cri3">
      <rect width="1500" height="1500"/>
    </clipPath>
  </defs>
  <g id="undraw_fans_re_cri3" clip-path="url(#clip-undraw_fans_re_cri3)">
    <rect width="1500" height="1500" fill="#fff"/>
    <g id="undraw_fans_re_cri3-2" data-name="undraw_fans_re_cri3">
      <path id="Path_3371" data-name="Path 3371" d="M1212.428,825.348H323.578v-150.9H337.29V562.13A99.925,99.925,0,0,1,437.1,462.318h663.414a99.926,99.926,0,0,1,99.813,99.813V674.448h12.1Z" transform="translate(-19.644 307.779)" fill="#dff1fd"/>
      <path id="Path_3372" data-name="Path 3372" d="M1267.206,945.4h-44.248V944.6a147.771,147.771,0,0,0-147.6-147.6H522.041a147.771,147.771,0,0,0-147.6,147.6v.807H330.189a38.066,38.066,0,0,1-38.023-38.023V660.709c-12.849-7.259-23.3-46.685-16.511-78.172,4.26-19.76,16.558-43.623,50.953-45.1,33.482-1.44,58.334,29.994,60.554,60.252a65.259,65.259,0,0,1-13.144,44.44h.419v35.189c72.606-23.267,145.315-35.107,216.122-35.189a661.47,661.47,0,0,1,212.984,35.446c142.578-46.115,283.679-47.012,419.415-2.657V642.129h.419a65.259,65.259,0,0,1-13.144-44.44c2.435-33.189,29.583-60.218,60.519-60.253h.1c36.479,0,49.382,21.961,53.783,40.394,7.789,32.622-6.51,75.559-19.409,82.878V907.379A38.066,38.066,0,0,1,1267.206,945.4Z" transform="translate(-50.337 353.81)" fill="#b0e0f6"/>
      <path id="Path_3373" data-name="Path 3373" d="M511.829,672.418l21.358,15.257,69.013-75.12-31.523-22.516Z" transform="translate(457.832 560.788)" fill="#f68389"/>
      <path id="Path_3374" data-name="Path 3374" d="M743.489,742.665l6.012,4.295,30.288,7.222,5.761,18.53h0a32.943,32.943,0,0,1,7.655,45.953l-.622.871-68.866-49.2Z" transform="translate(225.706 479.677)" fill="#2f2e41"/>
      <path id="Path_3375" data-name="Path 3375" d="M906.557,666.659H749.732a55.159,55.159,0,1,1,0-110.318H906.557a55.159,55.159,0,1,1,0,110.318Z" transform="translate(207.835 365.43)" fill="#2f2e41"/>
      <path id="Path_3376" data-name="Path 3376" d="M818.3,385.962l25.3,19.262,30.506,9.375S886.718,592,898.082,603.363s1.115,11.669,3.4,26.431,7.833,45.023,7.833,45.023c-76.706,40.6-142.834,41.693-195.952-5.82a13.23,13.23,0,0,1,7.219-14.933c9.886-5.246-9.114-29.729-1.034-33.823s-3.284-39.606-3.284-39.606l7.455-74.093-5.89-11.844L732.2,422.228l24.939-9.108,9.962-24Z" transform="translate(219.146 260.961)" fill="#fec230"/>
      <path id="Path_3377" data-name="Path 3377" d="M788.114,291.428a21.928,21.928,0,0,0,25,22.486l35.65,69.292,19.862-35.289-36.9-60.391a22.047,22.047,0,0,0-43.613,3.9Z" transform="translate(265.183 189.869)" fill="#f68389"/>
      <path id="Path_3378" data-name="Path 3378" d="M840.889,293.8l76.464,118.509-.252.545c-.289.625-17.6,38.021-34.381,72.273-2.584,5.275-5.155,10.475-7.649,15.455q-1.614,3.224-3.181,6.313c-7.047,13.892-13.2,25.374-16.878,30.829a64.723,64.723,0,0,1-34.3,26.018l-.354.091-.338-.141a32.845,32.845,0,0,1-19.547-36.131,232.648,232.648,0,0,1,43.17-97.6l12.4-16.339-43.078-93.655Z" transform="translate(272.444 204.45)" fill="#fec230"/>
      <path id="Path_3379" data-name="Path 3379" d="M774.035,282.428a21.928,21.928,0,0,1-25,22.486l-35.65,69.293-19.862-35.289,36.9-60.391a22.047,22.047,0,0,1,43.613,3.9Z" transform="translate(207.192 184.351)" fill="#f68389"/>
      <path id="Path_3380" data-name="Path 3380" d="M735.28,284.8,658.816,403.307l.252.545c.289.625,17.6,38.021,34.381,72.273,2.584,5.275,5.155,10.475,7.649,15.455q1.615,3.224,3.181,6.313c7.047,13.892,13.2,25.374,16.878,30.829a64.722,64.722,0,0,0,34.3,26.018l.354.091.338-.141a32.845,32.845,0,0,0,19.547-36.131,232.648,232.648,0,0,0-43.17-97.6l-12.4-16.339,43.078-93.655Z" transform="translate(185.91 198.932)" fill="#fec230"/>
      <circle id="Ellipse_622" data-name="Ellipse 622" cx="50.035" cy="50.035" r="50.035" transform="translate(961.519 536.132)" fill="#f68389"/>
      <path id="Path_3381" data-name="Path 3381" d="M739.324,329.808c4.115-11.971,24.6-20.274,57.806-21.429s41.629,37.979,41.629,37.979c22.168,17.983-23.671,66.128-25.889,64.394l1-9.045c1.651-14.983,8.667-26.673-.255-42.288l-8.568.1-16.251,3.125A4.7,4.7,0,0,1,784.8,354.5l.149-.131-.369-.572c-5.725,2.626-11.624,5.062-17.882,5.43-7.041.414-14.739-2.388-18.111-8.583a14.422,14.422,0,0,1-1.618-5.488c-9.495,3.794-13.837,15.5-13.837,15.5S735.209,341.779,739.324,329.808Z" transform="translate(231.477 213.375)" fill="#2f2e41"/>
      <path id="Path_3382" data-name="Path 3382" d="M632.409,657.28l-20.032,16.961-74.954-69.192,29.563-25.033Z" transform="translate(473.525 554.642)" fill="#f68389"/>
      <path id="Path_3383" data-name="Path 3383" d="M861.876,755.426l-64.588,54.691-.692-.817a32.944,32.944,0,0,1,3.851-46.427h0l4.218-18.941,29.592-9.688,5.638-4.774Z" transform="translate(265.607 471.585)" fill="#2f2e41"/>
      <path id="Path_3384" data-name="Path 3384" d="M777.187,653.073l16.557-35.905c-.186-32.75-27.6-59.348-60.287-57.3-18.2,1.143-35.248,11.324-42.29,41.584-18.109,77.811,159.577,239.737,159.577,239.737l32.649-20.177,1.5-21.316-18.285-11.27L866.6,770.25l-17.435-8.27Z" transform="translate(204.952 367.527)" fill="#2f2e41"/>
      <path id="Path_3385" data-name="Path 3385" d="M848.031,646.505l-20.465-30.092c-2.508-32.655,22.627-61.417,55.371-62.059C901.173,554,919,562.743,928.5,592.321,952.95,668.38,789.18,844.367,789.18,844.367l-34.2-17.425-3.252-21.12,17.3-12.735-1.478-18.119,16.7-9.675Z" transform="translate(242.881 364.207)" fill="#2f2e41"/>
      <path id="Path_3386" data-name="Path 3386" d="M778.89,472.525v9.614H747.014v-9.614h9.872V449.36l-9.227,5.291V444.263l14.2-8.066h7.1v36.328Z" transform="translate(239.99 291.763)" fill="#fff"/>
      <path id="Path_3387" data-name="Path 3387" d="M772.962,476.826q-4.549-6.065-4.549-17.551,0-11.292,4.549-17.326a17.167,17.167,0,0,1,26.133,0q4.549,6.034,4.549,17.326,0,11.485-4.549,17.551a17.108,17.108,0,0,1-26.134,0Zm17.519-6.42a32.678,32.678,0,0,0,1.356-11.131,31.6,31.6,0,0,0-1.356-10.905,4.631,4.631,0,0,0-8.9,0,31.6,31.6,0,0,0-1.356,10.905,32.681,32.681,0,0,0,1.356,11.131,4.619,4.619,0,0,0,8.9,0Z" transform="translate(253.111 291.591)" fill="#fff"/>
      <path id="Path_3388" data-name="Path 3388" d="M345.341,702.081l-24.475,0-11.645-94.41,36.125,0Z" transform="translate(333.602 571.598)" fill="#f68389"/>
      <path id="Path_3389" data-name="Path 3389" d="M585.19,805.78l-75.268,0v-.952a29.3,29.3,0,0,1,29.295-29.3h0l13.749-10.43,25.652,10.432h6.57Z" transform="translate(94.615 493.432)" fill="#2f2e41"/>
      <path id="Path_3390" data-name="Path 3390" d="M438.974,702.081l24.475,0,11.644-94.41-36.125,0Z" transform="translate(413.157 571.598)" fill="#f68389"/>
      <path id="Path_3391" data-name="Path 3391" d="M662.872,805.78l75.269,0v-.952a29.3,29.3,0,0,0-29.295-29.3h0L695.093,765.1l-25.652,10.432h-6.57Z" transform="translate(188.396 493.432)" fill="#2f2e41"/>
      <path id="Path_3392" data-name="Path 3392" d="M533.005,790.723c.361-5.387,3.236-35.18,3.236-35.18l6.884-63.182L555.26,524.88l.792-10.964,63.561-12.2,43.441-20.825,51.633,16.506,40.205,15.077s.069,6.454.379,14.251c.413,10.206,1.136,22.719,2.857,25.972,2.874,5.749,2.151,36.608,2.151,36.608s2.857,62.786,6.454,69.671,4.32,21.221,3.236,24.1,3.6,78.276,3.6,78.276,12.015,133.433,4.477,153.553-36.025,6.941-36.025,6.941,1.377-5.37-6.885-7.9-33.424-191.732-33.424-191.732-4.681-38.794-8.984-49.912-8.261-42.357-8.261-42.357-26.574-51.7-26.918-63.2c0,0-3.477-10.757-6.764,1.084S637.8,608.027,637.8,608.027l-9.449,34.835-11.118,52.046-7.194,43.82s-10.774,58.156-12.5,60.669,0,55.644,0,55.644-8.33,45.248-20.1,53.148-42.962.125-42.962.125S532.644,796.11,533.005,790.723Z" transform="translate(108.74 319.166)" fill="#028ffa"/>
      <path id="Path_3393" data-name="Path 3393" d="M333.429,340.281l14.13,37-17.435,18.043,7.677,6.867-5.662,9.711L317.37,513.67l80.961,26.691,27.262-29.714,21.5,29.714,93.681-19.9L516.882,390.686V382.2l-6.746-16.382V331.14l30.979-103.234-66.331-16.19-25.42-17.49-8.227,24.6-35.025-5.417-.913-18.477-26.8,22.008-35.73,5.6-27.02,5.372-3.442,7.48,6.883-1.5,12.049,97.325Z" transform="translate(335.433 318.092)" fill="#028ffa"/>
      <path id="Path_3394" data-name="Path 3394" d="M595.339,348.677l17.29-45.348,44.164-.809,14.655,46.157,52.675,294.254s-161.373,44.939-159.736-9.08c1.721-56.8,9.487-132.242,9.487-132.242Z" transform="translate(128.003 209.798)" fill="#fec230"/>
      <circle id="Ellipse_623" data-name="Ellipse 623" cx="52.025" cy="52.025" r="52.025" transform="translate(709.701 396.393)" fill="#f68389"/>
      <path id="Path_3395" data-name="Path 3395" d="M574.487,252.648c8.47-9.219,19.064-26.094,51.153-33.18,39.65-8.756,58.387,27.063,48.388,27.65,29.238,8.854,10.456,69.361,2.074,64.286a2.444,2.444,0,0,1-.207-.162,41.186,41.186,0,0,1-16.451-28.1l-1.591-14.318c-.227,11.65-12.135,13.191-24.3,8.9a15.262,15.262,0,0,1,10.782-10.616c-7.441,6.864-17.127,11.774-30.656,13.339,1.661-6.428,4.969-11.16,10.149-13.964l-.48-.472c-4.957,3.773-10.123,7.4-16.084,9.107-6.706,1.922-14.74.882-19.335-4.367a14.266,14.266,0,0,1-2.748-4.946c.993,9.226-5.2,19.758-10,17.95C571.179,282.977,568.848,258.785,574.487,252.648Z" transform="translate(132.146 158.029)" fill="#2f2e41"/>
      <path id="Path_3396" data-name="Path 3396" d="M653.391,275.163l47.315,79.6,34.971-16.517s-60.26-75.264-62.18-77.429a18.516,18.516,0,1,0-20.107,14.344Z" transform="translate(172.481 170.386)" fill="#f68389"/>
      <path id="Path_3397" data-name="Path 3397" d="M665.84,450.592l73.431-52.9a42.438,42.438,0,0,0,7.184-62.321l-52.847-60.621-23.022,31.2,17.745,37.1-34.359,9.06Z" transform="translate(182.94 192.771)" fill="#028ffa"/>
      <path id="Path_3398" data-name="Path 3398" d="M614.478,279.8l-47.315,79.6-34.971-16.517s60.26-75.264,62.18-77.429A18.516,18.516,0,1,1,614.478,279.8Z" transform="translate(108.27 173.229)" fill="#f68389"/>
      <path id="Path_3399" data-name="Path 3399" d="M603.613,455.23l-73.431-52.9A42.438,42.438,0,0,1,523,340.01l52.846-60.621,23.022,31.2-17.745,37.1,34.359,9.06Z" transform="translate(96.227 195.615)" fill="#028ffa"/>
      <path id="Path_3400" data-name="Path 3400" d="M627.908,389.415a10.39,10.39,0,0,1,2.452,7.034,11.072,11.072,0,0,1-2.324,7.033,14.58,14.58,0,0,1-6.42,4.549,28.668,28.668,0,0,1-18.777,0,14.577,14.577,0,0,1-6.42-4.549,11.073,11.073,0,0,1-2.324-7.033,10.594,10.594,0,0,1,2.452-7.13,12.8,12.8,0,0,1,6.9-3.969,12.863,12.863,0,0,1-6-3.968,9.62,9.62,0,0,1-2.194-6.291,10.461,10.461,0,0,1,2.226-6.646,14.078,14.078,0,0,1,6.066-4.355,25.6,25.6,0,0,1,17.357,0,14.081,14.081,0,0,1,6.066,4.355,10.46,10.46,0,0,1,2.226,6.646,9.88,9.88,0,0,1-2.226,6.42,12.072,12.072,0,0,1-5.9,3.9,13.226,13.226,0,0,1,6.84,4Zm-10.647,9.808a4.219,4.219,0,0,0,1.935-3.742,4.712,4.712,0,0,0-1.871-3.871,7.324,7.324,0,0,0-10.2,0,4.709,4.709,0,0,0-1.871,3.871,4.22,4.22,0,0,0,1.935,3.742,10.457,10.457,0,0,0,10.066,0Zm-9.131-26.359a4.275,4.275,0,0,0-1.581,3.645q0,4.259,5.678,5.678,5.677-1.418,5.678-5.678a4.276,4.276,0,0,0-1.581-3.645,7.627,7.627,0,0,0-8.2,0Z" transform="translate(146.224 246.62)" fill="#fff"/>
      <path id="Path_3401" data-name="Path 3401" d="M255.438,292.584a13.774,13.774,0,0,0,21.01,2.16l43.739,21.975-2.98-25.261-41.079-16.995a13.849,13.849,0,0,0-20.691,18.121Z" transform="translate(-62.913 190.411)" fill="#f68389"/>
      <path id="Path_3402" data-name="Path 3402" d="M423.9,391.59l-21.778-15.019s-24.939-1.691-28.69-9.62-4.383-5.263-8.381-6.211-6.062-12.882-12.764-11.474c-15.08,3.167-86-43.7-78.346-49.552l5.69-23.991a77.249,77.249,0,0,0,18.659,4.425c9.646.88,32.372,11.9,35.738,15.515s9.33,2.213,17.327,4.109,10.8,14.76,24.059,11.337c18.662-4.816,115.346,41.041,125.806,45.322,11.48,4.7,19.5,18.7,19.5,18.7l-3.161,13.328Z" transform="translate(-50.431 193.367)" fill="#fec230"/>
      <path id="Path_3403" data-name="Path 3403" d="M239.682,689.464h18.98l9.032-73.21H239.68Z" transform="translate(290.962 576.861)" fill="#f68389"/>
      <path id="Path_3404" data-name="Path 3404" d="M461.728,762.56l30.324-1.81v12.992l28.83,19.911a8.115,8.115,0,0,1-4.611,14.793h-36.1L473.946,795.6l-2.43,12.851H457.9Z" transform="translate(62.72 490.766)" fill="#2f2e41"/>
      <path id="Path_3405" data-name="Path 3405" d="M92.211,677.495l17.635,7.021,35.469-64.68-26.027-10.36Z" transform="translate(200.54 572.706)" fill="#f68389"/>
      <path id="Path_3406" data-name="Path 3406" d="M323.859,751.028l28.843,9.534-4.8,12.071,19.422,29.162a8.115,8.115,0,0,1-9.756,12.039l-33.542-13.352-1.029-14.241-7.01,11.041-12.647-5.034Z" transform="translate(-32.056 484.804)" fill="#2f2e41"/>
      <path id="Path_3407" data-name="Path 3407" d="M510.825,765.265l-31.651-147.7L429.75,781.673l-78.26,155.62-.415.826-24.79-13.347c-3.5-63.189,4.811-122.4,35.2-174.179l14.391-142.117c.441-4.856,11.176-118.859,45.167-139.076L431,446.7l99.008-24.453.36.406A75.692,75.692,0,0,1,548.5,460.672L578.089,639.9l.017.1-7.932,125.029,10.851,184.459H541.762Q505.329,880.931,510.825,765.265Z" transform="translate(-18.441 283.211)" fill="#2f2e41"/>
      <path id="Path_3408" data-name="Path 3408" d="M502.007,252.219a13.774,13.774,0,0,1-.56,21.114l16.168,46.2-24.668-6.2-11.571-42.923a13.849,13.849,0,0,1,20.632-18.189Z" transform="translate(75.606 176.792)" fill="#f68389"/>
      <path id="Path_3409" data-name="Path 3409" d="M378.494,576.89c-2.666,0-4.181-.523-4.767-1.644-.861-1.646.633-3.8,2.362-6.286,1.206-1.735,4.728-5.185,3-5.4-26.264-3.208-13.657-165.138-2.274-186.542,2.313-4.349-.134-11.022,2.47-18.4,7.114-20.156,16.825-26.351,36.17-38.69q2.355-1.5,4.906-3.139c2.2-1.413,2.077-6.1,1.947-11.061-.144-5.515-.293-11.218,2.409-14.783l.176-.232.283-.066c6.535-1.511,28.513-4.315,41.529.02l.18.061.134.134c3.092,3.092,3.374,9.081,3.646,14.872.223,4.755.434,9.244,2.184,11.195,13.373,14.907,28.541,14.616,28.694,14.613l.751-.022.075.747c9.376,17.846,2.035,84.123,8.552,125.293,6.621,41.826,63.167,77.43,14.748,83.752a1.049,1.049,0,0,1,.033,1.087C522.772,547.865,388.543,576.89,378.494,576.89ZM524.318,542.191Z" transform="translate(4.881 201.111)" fill="#fec230"/>
      <path id="Path_3410" data-name="Path 3410" d="M560.374,385.145,533.5,398.475c-51.785,19.893-78.849,15.047-92.446,7.484-14.508-8.069-17.024-20.44-17.122-20.962l-.009-.252,3.315-26.259a23.721,23.721,0,0,1,29.384-20.017L518.449,354.2l-1.128-30.013,2.445-10.807-4.51-13.136,1.848-26.381,22.178-5.428,23.263,41.668-4.179,11.5,3.938,5.725-.008.265Z" transform="translate(41.884 188.901)" fill="#fec230"/>
      <path id="Path_3411" data-name="Path 3411" d="M437.909,353.838v9.034l-20,36.909H405l19.938-36.328H403.774v-9.614Z" transform="translate(29.529 241.264)" fill="#fff"/>
      <path id="Path_3412" data-name="Path 3412" d="M1434.207,792.859l-1207.852.5a1.921,1.921,0,1,1,0-3.842l1207.852-.5a1.921,1.921,0,1,1,0,3.841Z" transform="translate(-80.435 508.098)" fill="#3f3d56"/>
      <path id="Path_3413" data-name="Path 3413" d="M778.96,245.37c14.859-31.592,2.835-68.523-18.636-78.622s-57.585,4.192-72.444,35.784c-13.754,29.243-3.509,63.493,14.126,75.971a2.422,2.422,0,0,0-.816.422l-4.237,3.49a2.455,2.455,0,0,0,.564,4.138L708.2,291.3a2.455,2.455,0,0,0,3.449-2.355l-.25-5.484a2.425,2.425,0,0,0-.105-.562C732.176,288.639,765.177,274.676,778.96,245.37Z" transform="translate(199.822 124.585)" fill="#dff1fd"/>
      <path id="Path_3414" data-name="Path 3414" d="M743.524,186.993a40.389,40.389,0,0,1-23.071,50.614c-2.187.91-.441,4.154,1.731,3.25a44.162,44.162,0,0,0,24.934-54.67C746.377,183.956,742.777,184.745,743.524,186.993Z" transform="translate(223.087 137.652)" fill="#fff"/>
      <path id="Path_3415" data-name="Path 3415" d="M938.062,316.5c30.066-17.746,40.919-55.038,28.859-75.471s-49.953-28.954-80.019-11.209c-27.83,16.426-38.644,50.5-31.094,70.741a2.425,2.425,0,0,0-.912-.111l-5.467.5a2.455,2.455,0,0,0-1.864,3.738l6.159,9.941a2.455,2.455,0,0,0,4.177,0l2.881-4.673a2.435,2.435,0,0,0,.229-.524C875.036,325.924,910.171,332.962,938.062,316.5Z" transform="translate(301.418 159.312)" fill="#afdaf3"/>
      <path id="Path_3416" data-name="Path 3416" d="M931.918,252.874a40.389,40.389,0,0,1-47.561,28.844c-2.32-.479-2.7,3.185-.4,3.661a44.162,44.162,0,0,0,51.384-31.147C935.985,251.97,932.566,250.6,931.918,252.874Z" transform="translate(323.01 178.64)" fill="#fff"/>
      <path id="Path_3417" data-name="Path 3417" d="M799.474,240a57.936,57.936,0,0,1,2.387-52.615c1.291-2.242,2.576-4.956,5.405-5.386a4.8,4.8,0,0,1,5.271,2.829,6.292,6.292,0,0,1-10.4,6.274c-5.365-4.322-4.683-11.929-4.168-18.052,1.176-13.952,1.157-28.6-4.779-41.586-5.492-12.015-16.7-22.065-30.244-23.162-2.369-.192-2.5,3.489-.146,3.68,13.429,1.089,23.937,12.152,28.4,24.261a67.586,67.586,0,0,1,3.708,22.671c.042,3.959-.14,7.918-.445,11.864a65.486,65.486,0,0,0-.361,11.6c.631,6.314,4.45,13.082,11.277,14.091,6.369.941,12.588-5.721,10.866-12.051a8.644,8.644,0,0,0-13.836-4.1c-2.392,2-3.946,5.427-5.31,8.167a61.623,61.623,0,0,0-.88,53.253c1.01,2.146,4.258.409,3.25-1.731Z" transform="translate(248.63 90.706)" fill="#fec230"/>
      <path id="Path_3418" data-name="Path 3418" d="M563.277,327.767c-1.387-2.533-3.775-9.776-6.453-9.679a31.941,31.941,0,0,1-8.163-.694c-.29-.048-.581-.113-.855-.178a152.408,152.408,0,0,0-34.57-4.517c-9.4-.129-19.729,1-26.295,7.727s-5.6,20.6,3.452,23.165a116.679,116.679,0,0,1-86.53-19.181c-16.019-11.26-28.859-26.343-42.442-40.442-13.583-14.115-28.553-27.682-46.862-34.586-18.325-6.92-40.732-5.953-55.493,6.937-18,15.712-19.39,42.749-19.406,66.64-.016,8.937,2.775,7.049,10.663,11.26,7.324,3.9,15.018,11.937,19.487,4.952s5.259-15.615,6.178-23.859c.9-8.243,2.242-16.922,7.469-23.359,8.985-11.066,26.682-11.179,39.087-4.162s20.745,19.293,28.634,31.166c7.888,11.857,16.212,24.165,28.6,31.231,16.277,9.276,36.716,7.9,53.7,15.809,10.792,5.033,19.519,13.47,28.472,21.294,8.969,7.824,18.793,15.357,30.424,17.89,11.615,2.549,25.407-1.29,31.118-11.728,5.146-9.437,2.629-21.52,7.211-31.263,3.533-7.517,10.744-12.5,17.245-17.7,2.678-2.145,3.372,5.243,5.646,2.629C560.163,345.818,566.326,333.332,563.277,327.767Z" transform="translate(-71.098 174.604)" fill="#028ffa"/>
      <circle id="Ellipse_624" data-name="Ellipse 624" cx="50.973" cy="50.973" r="50.973" transform="translate(395.974 387.079)" fill="#2f2e41"/>
      <circle id="Ellipse_625" data-name="Ellipse 625" cx="36.632" cy="36.632" r="36.632" transform="matrix(1, -0.028, 0.028, 1, 412.358, 421.037)" fill="#f68389"/>
      <path id="Path_3419" data-name="Path 3419" d="M433.039,233.364l-14.849.421a35.345,35.345,0,0,0-34.3,36.29l.009.329.271.17a46.866,46.866,0,0,0,27.272,7.759l.835-.024,8.205-.372a22.668,22.668,0,0,0,1.342-11.178,75.41,75.41,0,0,1,2.894,10.982l36.815-1.676a8.222,8.222,0,0,0,7.813-8.412,35.345,35.345,0,0,0-36.3-34.289Z" transform="translate(17.327 167.386)" fill="#2f2e41"/>
      <path id="Path_3420" data-name="Path 3420" d="M442.486,239.792c-3.351,4.133-8.733,5.855-13.569,8.094a58.023,58.023,0,0,0-32.5,43.328c-1.139,7.59-.741,15.4-2.67,22.823s-6.974,14.793-14.489,16.285c-5.085,1.018-10.264-.81-15.126-2.622q-4.011-1.481-8.021-2.975,3.842-10.5,7.671-20.99a105.226,105.226,0,0,1-14.81,18.357q-14.373-5.327-28.771-10.654c23.352-.573,18.725-23.126,23.3-46.017,2.517-12.578,26.727-21.733,31.184-33.759a36.387,36.387,0,0,1,65.881-5.183C445.425,228.253,445.776,235.712,442.486,239.792Z" transform="translate(-21.711 151.766)" fill="#2f2e41"/>
      <circle id="Ellipse_626" data-name="Ellipse 626" cx="18.981" cy="18.981" r="18.981" transform="translate(404.13 368.756)" fill="#2f2e41"/>
      <g id="Group_124" data-name="Group 124" transform="matrix(0.999, -0.052, 0.052, 0.999, 8.749, -132.238)">
        <path id="Subtraction_4" data-name="Subtraction 4" d="M24442.5,8461a5.5,5.5,0,0,1-5.291-7h10.584a5.506,5.506,0,0,1-5.293,7Z" transform="translate(-24046 -7843)" fill="#2f2e41"/>
        <path id="Subtraction_5" data-name="Subtraction 5" d="M24442.5,8461a5.5,5.5,0,0,1-5.291-7h10.584a5.506,5.506,0,0,1-5.293,7Z" transform="translate(-24014 -7843)" fill="#2f2e41"/>
      </g>
      <g id="Group_126" data-name="Group 126" transform="matrix(0.999, -0.052, 0.052, 0.999, 305.905, -132.238)">
        <path id="Subtraction_4-2" data-name="Subtraction 4" d="M24442.5,8461a5.5,5.5,0,0,1-5.291-7h10.584a5.506,5.506,0,0,1-5.293,7Z" transform="translate(-24046 -7843)" fill="#2f2e41"/>
        <path id="Subtraction_5-2" data-name="Subtraction 5" d="M24442.5,8461a5.5,5.5,0,0,1-5.291-7h10.584a5.506,5.506,0,0,1-5.293,7Z" transform="translate(-24014 -7843)" fill="#2f2e41"/>
      </g>
      <g id="Group_127" data-name="Group 127" transform="translate(779.299 -118.678) rotate(17)">
        <path id="Subtraction_4-3" data-name="Subtraction 4" d="M24442.5,8461a5.5,5.5,0,0,1-5.291-7h10.584a5.506,5.506,0,0,1-5.293,7Z" transform="translate(-24046 -7843)" fill="#2f2e41"/>
        <path id="Subtraction_5-3" data-name="Subtraction 5" d="M24442.5,8461a5.5,5.5,0,0,1-5.291-7h10.584a5.506,5.506,0,0,1-5.293,7Z" transform="translate(-24014 -7843)" fill="#2f2e41"/>
      </g>
      <g id="XMLID_609_" transform="translate(498.577 99.084)">
        <g id="Group_92" data-name="Group 92" transform="translate(38.985 44.745)">
          <path id="Path_2164" data-name="Path 2164" d="M94.122,166.245a71.122,71.122,0,1,1,71.122-71.122A71.206,71.206,0,0,1,94.122,166.245Zm0-138.181a67.058,67.058,0,1,0,67.058,67.058A67.135,67.135,0,0,0,94.122,28.064Z" transform="translate(-23 -24)" fill="#aadaf2"/>
        </g>
        <path id="Path_2165" data-name="Path 2165" d="M43.147,67.673,75.518,35.7l-2.857-2.894L40.729,64.353A3.784,3.784,0,0,1,43.147,67.673Z" transform="translate(70.309 47.743)" fill="#aadaf2"/>
        <path id="Path_2166" data-name="Path 2166" d="M62.7,56.072,35.123,35.5l-2.43,3.259L60.093,59.2A3.71,3.71,0,0,1,62.7,56.072Z" transform="translate(45.685 55.979)" fill="#aadaf2"/>
        <g id="XMLID_622_" transform="translate(104.011 109.771)">
          <g id="XMLID_623_">
            <g id="Group_93" data-name="Group 93">
              <path id="Path_2167" data-name="Path 2167" d="M45.1,52.192a6.1,6.1,0,1,1,6.1-6.1A6.1,6.1,0,0,1,45.1,52.192Zm0-8.128A2.032,2.032,0,1,0,47.128,46.1,2.033,2.033,0,0,0,45.1,44.064Z" transform="translate(-39 -40)" fill="#aadaf2"/>
            </g>
          </g>
        </g>
        <g id="XMLID_631_" transform="translate(51.177 56.937)">
          <g id="Group_94" data-name="Group 94" transform="translate(27.697 6.896)">
            <rect id="Rectangle_526" data-name="Rectangle 526" width="4.06" height="8.124" transform="matrix(-0.866, -0.5, 0.5, -0.866, 58.392, 9.065)" fill="#aadaf2"/>
            <rect id="Rectangle_527" data-name="Rectangle 527" width="4.064" height="8.128" transform="translate(3.52 104.081) rotate(-150.007)" fill="#aadaf2"/>
          </g>
          <g id="Group_95" data-name="Group 95" transform="translate(6.888 27.712)">
            <rect id="Rectangle_528" data-name="Rectangle 528" width="4.06" height="8.128" transform="matrix(-0.5, -0.866, 0.866, -0.5, 97.039, 7.58)" fill="#aadaf2"/>
            <rect id="Rectangle_529" data-name="Rectangle 529" width="4.064" height="8.128" transform="translate(2.032 62.441) rotate(-119.993)" fill="#aadaf2"/>
          </g>
          <g id="Group_96" data-name="Group 96" transform="translate(0 56.898)">
            <rect id="Rectangle_530" data-name="Rectangle 530" width="8.128" height="4.064" transform="translate(109.732)" fill="#aadaf2"/>
            <rect id="Rectangle_531" data-name="Rectangle 531" width="8.128" height="4.064" fill="#aadaf2"/>
          </g>
          <g id="Group_97" data-name="Group 97" transform="translate(6.882 27.699)">
            <rect id="Rectangle_532" data-name="Rectangle 532" width="4.064" height="8.128" transform="translate(95.011 58.396) rotate(-59.991)" fill="#aadaf2"/>
            <rect id="Rectangle_533" data-name="Rectangle 533" width="4.064" height="8.128" transform="translate(0 3.52) rotate(-60.007)" fill="#aadaf2"/>
          </g>
          <g id="Group_98" data-name="Group 98" transform="translate(27.707 6.886)">
            <rect id="Rectangle_534" data-name="Rectangle 534" width="4.064" height="8.128" transform="translate(54.865 97.063) rotate(-29.993)" fill="#aadaf2"/>
            <rect id="Rectangle_535" data-name="Rectangle 535" width="4.064" height="8.128" transform="translate(0 2.032) rotate(-29.993)" fill="#aadaf2"/>
          </g>
          <g id="Group_99" data-name="Group 99" transform="translate(56.898)">
            <rect id="Rectangle_536" data-name="Rectangle 536" width="4.064" height="8.128" transform="translate(0 109.732)" fill="#aadaf2"/>
            <rect id="Rectangle_537" data-name="Rectangle 537" width="4.064" height="8.128" fill="#aadaf2"/>
          </g>
        </g>
      </g>
      <rect id="Rectangle_905" data-name="Rectangle 905" width="1500" height="1500" fill="#fff" opacity="0"/>
    </g>
  </g>
</svg>
